<?xml version="1.0" encoding="UTF-8" standalone="no"?>
<svg
   xmlns:dc="http://purl.org/dc/elements/1.1/"
   xmlns:cc="http://creativecommons.org/ns#"
   xmlns:rdf="http://www.w3.org/1999/02/22-rdf-syntax-ns#"
   xmlns:svg="http://www.w3.org/2000/svg"
   xmlns="http://www.w3.org/2000/svg"
   xmlns:sodipodi="http://sodipodi.sourceforge.net/DTD/sodipodi-0.dtd"
   xmlns:inkscape="http://www.inkscape.org/namespaces/inkscape"
   version="1.0"
   width="606.34564pt"
   height="489.14743pt"
   viewBox="0 0 606.34564 489.14743"
   preserveAspectRatio="xMidYMid meet"
   id="svg116"
   sodipodi:docname="swatch.svg"
   inkscape:version="1.0.1 (3bc2e813f5, 2020-09-07)">
  <metadata
     id="metadata122">
    <rdf:RDF>
      <cc:Work
         rdf:about="">
        <dc:format>image/svg+xml</dc:format>
        <dc:type
           rdf:resource="http://purl.org/dc/dcmitype/StillImage" />
        <dc:title></dc:title>
      </cc:Work>
    </rdf:RDF>
  </metadata>
  <defs
     id="defs120" />
  <sodipodi:namedview
     pagecolor="#ffffff"
     bordercolor="#666666"
     borderopacity="1"
     objecttolerance="10"
     gridtolerance="10"
     guidetolerance="10"
     inkscape:pageopacity="0"
     inkscape:pageshadow="2"
     inkscape:window-width="1920"
     inkscape:window-height="986"
     id="namedview118"
     showgrid="false"
     fit-margin-top="0"
     fit-margin-left="0"
     fit-margin-right="0"
     fit-margin-bottom="0"
     inkscape:zoom="0.54960938"
     inkscape:cx="407.86614"
     inkscape:cy="355.8381"
     inkscape:window-x="-11"
     inkscape:window-y="-11"
     inkscape:window-maximized="1"
     inkscape:current-layer="svg116" />
  <g
     transform="matrix(0.1,0,0,-0.1,-654.1004,806.87858)"
     fill="#000000"
     stroke="none"
     id="g114">
    <path
       d="m 8450,8051 c -7,-14 -21,-19 -52,-19 -24,0 -65,-10 -91,-21 -26,-11 -51,-20 -55,-19 -17,4 -62,-27 -62,-42 0,-10 -7,-23 -14,-30 -29,-24 -48,-106 -42,-185 3,-41 10,-84 16,-94 5,-11 10,-28 10,-39 0,-24 41,-66 101,-104 26,-15 57,-43 69,-61 12,-17 56,-52 98,-77 172,-103 256,-150 266,-150 6,0 22,-9 36,-20 14,-11 30,-20 37,-20 7,0 16,-8 22,-17 9,-16 13,-16 32,-4 18,11 24,11 27,1 2,-6 17,-27 34,-45 22,-26 51,-41 125,-66 54,-18 116,-44 138,-58 23,-14 71,-37 108,-51 37,-14 67,-29 67,-34 0,-14 -74,5 -96,25 -12,11 -35,19 -55,19 -19,0 -83,9 -144,21 -60,11 -141,22 -180,24 -38,2 -106,11 -150,20 -77,15 -233,35 -415,55 -271,29 -427,29 -610,0 -41,-7 -104,-12 -140,-12 -37,0 -68,-5 -72,-12 -6,-8 -8,-7 -8,2 0,6 -5,12 -11,12 -5,0 -8,-4 -5,-9 4,-5 0,-11 -6,-13 -7,-3 14,-8 47,-12 32,-4 66,-13 75,-20 14,-12 92,-29 133,-28 21,1 22,-5 2,-25 -9,-8 -14,-20 -12,-27 4,-10 9,-12 50,-15 9,0 17,-8 17,-16 0,-8 -8,-15 -17,-15 -17,-1 -17,-1 0,-14 24,-19 12,-48 -17,-40 -14,3 -27,-1 -35,-10 -8,-9 -22,-16 -32,-16 -20,0 -44,-35 -34,-50 4,-6 0,-13 -8,-16 -12,-4 -12,-11 4,-45 11,-21 28,-45 39,-51 11,-7 20,-17 20,-23 1,-10 71,-58 103,-71 40,-15 6,-72 -35,-60 -72,22 -89,24 -95,10 -3,-8 -10,-11 -15,-8 -6,4 -8,-4 -6,-17 2,-17 10,-25 28,-26 14,-1 19,0 13,3 -7,3 -13,10 -13,15 0,5 14,0 32,-11 17,-10 35,-17 40,-14 4,3 8,-2 8,-11 0,-12 -4,-14 -19,-6 -10,6 -20,8 -22,6 -3,-2 -22,0 -44,5 -40,9 -85,4 -85,-9 0,-4 12,-12 28,-18 l 27,-11 -31,-1 c -17,-1 -79,4 -137,10 -116,11 -149,8 -102,-11 16,-6 38,-19 47,-27 10,-9 18,-12 18,-6 0,6 10,9 23,8 12,-1 32,-3 45,-4 12,0 22,-4 22,-9 0,-8 -238,-7 -287,2 -20,3 -35,1 -43,-8 -14,-18 0,-27 49,-35 19,-4 36,-11 38,-16 3,-12 -134,-12 -184,0 -25,6 -39,2 -65,-16 -18,-13 -34,-23 -35,-21 -7,6 -33,1 -45,-10 -7,-7 -26,-14 -43,-16 -16,-1 -39,-3 -50,-5 -15,-1 -20,3 -18,18 1,19 1,19 -11,3 -11,-14 -25,-17 -82,-14 -39,2 -70,8 -72,15 -5,15 -27,14 -42,-3 -6,-8 -18,-12 -26,-9 -8,3 -14,0 -14,-6 0,-6 5,-11 11,-11 6,0 8,-9 4,-20 -4,-11 -3,-19 2,-18 4,1 18,-4 31,-11 27,-15 52,-1 52,30 0,23 39,25 85,5 l 30,-13 -30,-15 c -50,-26 -87,-126 -74,-199 14,-79 37,-160 58,-205 12,-24 21,-48 21,-53 0,-22 81,-79 136,-96 32,-9 79,-23 104,-31 25,-7 63,-16 85,-19 22,-4 57,-13 78,-21 20,-7 37,-12 37,-9 0,7 63,-25 70,-36 5,-8 137,-41 232,-58 31,-6 75,-19 97,-30 22,-11 53,-22 71,-23 33,-3 56,-21 46,-37 -5,-7 -15,-7 -32,-1 -14,6 -35,10 -47,10 -12,0 -35,7 -51,15 -33,17 -56,19 -56,5 0,-5 4,-10 10,-10 5,0 7,-7 4,-15 -4,-8 -1,-15 5,-15 6,0 11,4 11,10 0,5 7,7 17,3 14,-5 12,-9 -10,-28 -15,-11 -27,-24 -27,-27 0,-7 60,-23 72,-20 4,1 27,-7 52,-17 24,-11 61,-22 81,-25 21,-4 42,-9 47,-12 11,-7 217,-60 264,-68 35,-6 86,-36 81,-49 -2,-7 -23,-17 -48,-23 -33,-8 -50,-20 -72,-49 l -28,-39 154,-156 c 85,-85 205,-208 269,-272 66,-68 128,-122 146,-129 21,-7 32,-18 34,-34 2,-14 127,-149 338,-364 329,-336 396,-399 477,-443 23,-13 83,-49 133,-80 51,-32 95,-58 100,-58 4,0 25,-12 46,-27 49,-33 144,-76 144,-64 0,4 -17,15 -37,24 -29,11 -33,15 -16,16 32,1 74,-17 72,-31 -3,-27 2,-37 16,-32 8,4 15,12 15,20 0,17 26,19 36,2 5,-7 3,-8 -5,-4 -8,6 -11,2 -9,-10 2,-14 -2,-18 -16,-16 -11,2 -15,-1 -11,-7 3,-6 12,-11 20,-11 7,0 15,-3 17,-7 2,-5 21,-17 43,-29 22,-11 75,-39 118,-63 43,-23 83,-40 90,-37 8,3 9,5 0,5 -6,1 -9,10 -6,21 4,15 14,20 42,20 27,0 32,-3 21,-10 -13,-8 -13,-10 1,-10 24,0 30,11 16,28 -9,13 -9,14 1,8 6,-4 12,-2 12,4 0,5 -14,19 -31,29 -42,25 -21,35 25,12 24,-13 38,-15 43,-8 4,6 1,13 -5,15 -7,2 -12,10 -12,17 0,7 -7,15 -15,19 -20,7 -19,22 2,30 21,9 45,-21 38,-45 -4,-13 3,-20 32,-30 21,-6 56,-24 78,-38 106,-68 147,-86 155,-66 2,6 -21,25 -51,43 -30,19 -43,31 -29,27 20,-6 23,-5 13,6 -17,17 -16,29 2,29 8,0 15,4 15,9 0,14 -25,20 -41,10 -25,-16 -75,-10 -94,11 -18,20 -17,20 8,20 27,0 36,13 17,25 -8,5 -7,11 1,21 15,18 38,18 58,0 30,-27 85,-35 114,-17 15,8 27,21 27,29 0,17 -33,29 -38,14 -5,-17 -32,-15 -32,2 0,8 5,18 10,21 6,3 10,16 10,29 0,16 12,29 40,45 22,12 40,29 40,37 0,33 67,2 83,-38 9,-24 34,-23 42,2 5,15 12,19 25,15 10,-3 31,-7 46,-10 29,-3 87,-29 112,-48 20,-16 113,-47 107,-36 -4,5 -12,9 -20,9 -7,0 -15,4 -17,9 -1,5 -31,22 -65,40 -34,17 -64,35 -68,40 -3,6 -28,22 -55,37 -28,15 -50,31 -50,35 0,12 55,39 80,39 20,0 37,-8 139,-65 73,-41 115,-28 47,15 -19,11 -36,26 -38,32 -2,6 -21,12 -42,14 -42,3 -90,39 -70,52 6,4 9,23 6,45 -3,29 -11,41 -29,50 -30,13 -46,-5 -38,-41 5,-21 4,-22 -15,-12 l -21,11 21,29 c 12,16 25,32 29,35 5,2 35,-8 67,-25 32,-16 62,-26 68,-23 20,13 65,10 71,-4 3,-10 14,-14 30,-11 13,3 26,0 28,-6 3,-7 37,-25 76,-41 39,-15 76,-34 82,-42 6,-7 17,-13 24,-13 7,0 18,-7 26,-16 13,-15 81,-54 96,-54 4,0 -9,14 -30,31 -50,41 -50,64 0,56 20,-4 42,-2 48,3 8,6 25,3 51,-11 21,-11 48,-22 59,-24 11,-1 40,-6 65,-10 l 45,-6 -24,21 c -13,11 -30,19 -38,16 -8,-3 -17,4 -23,18 -10,26 -32,38 -55,30 -8,-4 -21,-1 -29,5 -7,6 -16,8 -19,4 -4,-3 -13,-1 -20,6 -8,6 -22,9 -31,5 -15,-6 -106,44 -106,58 0,10 61,-2 77,-14 6,-5 20,-8 30,-7 10,1 35,-5 55,-15 45,-19 61,-20 55,-3 -2,6 -9,11 -15,10 -11,-2 -38,25 -31,31 2,3 16,7 32,11 23,6 27,4 27,-14 0,-22 27,-41 60,-41 12,0 19,-3 17,-7 -3,-5 7,-9 21,-10 l 27,-1 -24,12 c -38,21 -7,29 52,15 29,-6 61,-18 73,-26 20,-13 34,-9 34,9 0,9 -49,32 -62,30 -11,-3 -38,66 -38,95 0,21 2,22 14,11 8,-8 16,-23 18,-34 3,-15 11,-18 36,-16 33,3 43,-13 21,-35 -8,-8 -8,-13 0,-17 16,-11 31,2 31,27 0,18 30,50 50,52 15,1 30,19 30,35 0,10 7,20 15,24 8,3 14,2 14,-2 -1,-4 -1,-15 0,-24 1,-22 21,-24 21,-2 0,15 10,14 58,-3 6,-3 12,-1 12,4 0,6 -18,16 -41,23 -33,11 -39,17 -35,34 3,12 6,29 6,39 0,13 5,16 25,11 53,-13 113,-9 124,8 11,17 -3,28 -39,28 -9,0 -23,6 -29,14 -19,22 22,30 58,12 17,-9 32,-16 36,-16 12,0 4,21 -17,41 -13,12 -18,20 -13,17 6,-3 32,-9 60,-13 27,-3 57,-13 66,-21 8,-8 26,-14 38,-14 12,0 31,-5 42,-11 11,-5 28,-9 37,-7 10,2 -4,11 -33,22 -27,10 -81,39 -118,64 -69,45 -83,63 -32,40 23,-10 29,-10 33,0 5,17 44,15 68,-3 10,-8 29,-15 42,-15 31,0 62,-17 62,-34 0,-10 9,-12 32,-7 44,9 45,24 3,40 -22,8 -35,19 -35,30 0,10 -10,26 -22,35 -22,15 -21,15 21,9 38,-5 43,-4 39,13 -2,11 -13,20 -25,22 -13,2 -32,17 -44,33 -13,19 -27,28 -36,24 -22,-8 -44,25 -32,47 8,15 14,16 30,8 11,-6 23,-8 28,-5 13,8 118,-33 139,-54 20,-21 176,-95 166,-80 -3,6 -29,26 -58,44 -28,19 -80,54 -116,79 -36,25 -69,46 -74,46 -5,0 -32,15 -60,32 -28,18 -60,39 -71,46 -69,43 -81,52 -95,64 -8,8 -35,27 -59,43 -25,17 -54,39 -66,50 -12,11 -45,36 -73,55 -28,19 -51,40 -52,46 0,5 -12,15 -27,22 -26,10 -26,11 -3,6 14,-4 31,-12 39,-19 10,-10 18,-11 30,-3 12,7 33,4 76,-10 33,-11 61,-19 63,-17 10,10 -14,26 -58,39 -69,20 -94,36 -82,48 6,6 8,17 5,25 -7,18 85,106 104,98 8,-3 27,-8 41,-11 26,-5 26,-5 8,10 -10,8 -23,13 -27,10 -5,-3 -9,-1 -9,3 0,9 53,38 88,48 14,4 22,2 23,-7 1,-7 4,-2 8,12 7,22 12,25 52,23 40,-2 42,-1 25,13 -11,7 -26,14 -34,14 -19,0 -2,22 40,51 27,19 30,20 61,4 17,-9 45,-18 62,-21 l 29,-4 -37,31 c -50,41 -62,64 -35,66 29,3 32,8 15,35 -16,23 -13,78 4,78 4,0 23,-9 42,-20 40,-24 127,-51 127,-40 0,11 -43,55 -124,125 -95,82 -206,156 -316,212 -36,17 -76,39 -90,47 -14,8 -43,22 -65,31 -65,27 -90,43 -93,59 -3,13 8,16 55,17 32,1 62,1 67,0 4,-1 22,9 40,22 17,13 44,27 61,31 40,10 55,24 55,51 0,13 7,26 16,29 10,4 13,13 9,25 -7,24 23,44 46,30 27,-17 30,-9 9,26 -12,20 -20,41 -17,49 9,22 -21,130 -39,143 -10,7 -15,15 -12,18 10,11 48,-47 48,-73 0,-24 1,-24 19,-8 10,9 22,16 27,15 30,-5 37,1 21,19 -13,14 -14,21 -5,30 8,8 3,18 -21,41 -37,35 -33,61 9,61 16,0 32,-4 35,-10 13,-21 25,-9 25,25 0,32 -4,37 -45,57 -25,12 -45,26 -45,31 0,5 6,7 14,4 7,-3 18,-1 23,4 5,5 38,-1 83,-15 105,-35 121,-22 40,33 -28,19 -50,36 -50,38 0,5 42,-17 60,-32 20,-16 70,-28 70,-16 0,11 -72,76 -91,83 -8,3 -11,9 -7,13 4,4 23,-6 43,-21 32,-24 40,-26 65,-17 17,6 31,7 34,2 2,-5 3,-4 2,3 -1,7 -23,17 -47,24 -73,18 -83,27 -84,73 0,23 4,41 9,41 5,0 18,8 28,17 18,16 21,16 62,-6 23,-13 49,-22 57,-19 21,7 -66,65 -158,105 -96,42 -319,148 -353,168 -14,8 -45,24 -70,36 -25,12 -58,31 -73,41 -16,11 -54,28 -85,38 -80,26 -211,81 -252,107 -19,11 -58,28 -86,36 -27,8 -72,26 -100,40 -27,14 -71,35 -99,45 -27,11 -77,33 -110,50 -33,17 -85,42 -115,56 -30,14 -71,35 -90,47 -53,33 -231,107 -285,119 -27,6 -60,17 -74,25 -50,27 -127,58 -226,91 -132,43 -226,79 -300,114 -33,15 -85,35 -115,44 -30,10 -63,21 -72,26 -31,17 -203,72 -233,75 -35,3 -97,26 -107,39 -3,5 -14,10 -25,11 -28,2 -59,14 -178,64 -60,26 -130,53 -155,60 -25,7 -81,26 -125,42 -44,16 -96,31 -115,34 -59,9 -83,13 -138,25 -29,7 -63,9 -76,6 -13,-3 -58,1 -100,9 -100,19 -113,19 -126,-4 z M 7955,6412 c -6,-16 -7,-16 -17,2 -8,14 -7,21 3,27 17,10 24,-4 14,-29 z m -640,-140 c -8,-8 -25,10 -19,20 4,6 9,5 15,-3 4,-7 6,-15 4,-17 z m -695,-62 c -18,-11 -24,-6 -16,16 5,14 9,15 19,5 9,-9 9,-14 -3,-21 z m 5477,-76 c -3,-3 -12,-4 -19,-1 -8,3 -5,6 6,6 11,1 17,-2 13,-5 z m -1146,-287 c -1,-12 -15,-9 -19,4 -3,6 1,10 8,8 6,-3 11,-8 11,-12 z M 6967,5684 c -3,-3 -12,-4 -19,-1 -8,3 -5,6 6,6 11,1 17,-2 13,-5 z m 228,-106 c 7,-8 5,-9 -8,-4 -10,3 -30,6 -43,6 -13,0 -24,5 -24,11 0,14 60,4 75,-13 z m 420,-286 c -7,-8 -45,10 -40,19 4,5 14,3 25,-3 11,-7 17,-14 15,-16 z m 45,13 c 0,-8 -7,-15 -15,-15 -8,0 -15,5 -15,11 0,5 5,7 10,4 6,-3 10,-1 10,4 0,6 2,11 5,11 3,0 5,-7 5,-15 z m 144,-35 c 4,-5 -2,-11 -13,-15 -22,-7 -51,9 -51,26 0,10 50,1 64,-11 z m 244,-39 c 11,-7 11,-9 -2,-14 -8,-3 -18,-1 -22,5 -4,7 -9,6 -14,-2 -4,-7 -13,-9 -20,-5 -9,6 -9,9 1,16 18,11 40,11 57,0 z m 117,-59 c -3,-3 -11,0 -18,7 -9,10 -8,11 6,5 10,-3 15,-9 12,-12 z m 430,8 c 3,-5 1,-10 -4,-10 -6,0 -11,5 -11,10 0,6 2,10 4,10 3,0 8,-4 11,-10 z m 1987,-162 c -11,-11 -32,-3 -32,12 0,4 9,6 21,3 13,-4 17,-9 11,-15 z M 8566,4849 c 4,-7 1,-10 -7,-7 -8,3 -24,1 -36,-3 -13,-5 -23,-5 -23,0 0,20 55,28 66,10 z m -226,-105 c 0,-9 -5,-14 -12,-12 -18,6 -21,28 -4,28 9,0 16,-7 16,-16 z m 3820,-344 c 0,-5 -4,-10 -10,-10 -5,0 -10,5 -10,10 0,6 5,10 10,10 6,0 10,-4 10,-10 z m 60,-41 c 0,-6 -4,-7 -10,-4 -5,3 -10,11 -10,16 0,6 5,7 10,4 6,-3 10,-11 10,-16 z m -3456,-30 c 20,-12 33,-25 30,-30 -3,-5 4,-9 14,-9 11,0 25,-7 32,-15 17,-20 3,-18 -49,8 -24,12 -51,32 -59,45 -18,27 -13,28 32,1 z m 716,-134 c 0,-2 -13,1 -30,6 -16,6 -30,15 -30,20 0,5 14,3 30,-6 17,-9 30,-17 30,-20 z m 2658,-1 c -9,-10 -21,-13 -29,-8 -9,5 -8,9 7,15 31,12 39,10 22,-7 z m -83,-22 c -3,-3 -11,0 -18,7 -9,10 -8,11 6,5 10,-3 15,-9 12,-12 z m 215,7 c 0,-6 -6,-9 -14,-6 -7,3 -19,0 -25,-6 -9,-9 -11,-8 -6,6 8,19 45,24 45,6 z m -3175,-59 c 3,-5 1,-10 -4,-10 -6,0 -11,5 -11,10 0,6 2,10 4,10 3,0 8,-4 11,-10 z m 2920,-10 c 3,-5 1,-10 -4,-10 -6,0 -11,5 -11,10 0,6 2,10 4,10 3,0 8,-4 11,-10 z m -3010,-90 c 3,-5 -1,-10 -10,-10 -9,0 -13,5 -10,10 3,6 8,10 10,10 2,0 7,-4 10,-10 z m 309,-31 c -8,-14 -24,-10 -24,6 0,9 6,12 15,9 8,-4 12,-10 9,-15 z m -190,-78 c 7,-11 -3,-41 -14,-41 -12,0 -40,29 -40,41 0,12 47,12 54,0 z m 2436,-12 c 0,-13 -18,-20 -25,-9 -3,5 -15,10 -26,10 -10,0 -19,4 -19,8 0,4 16,6 35,4 19,-2 35,-8 35,-13 z m 202,-41 c -13,-13 -32,-2 -32,18 0,12 4,13 21,3 14,-7 18,-14 11,-21 z m -2555,-15 c 0,-16 -9,-17 -25,-1 -7,7 -12,9 -12,5 0,-4 -9,-3 -20,3 -11,6 -18,15 -16,19 8,12 73,-11 73,-26 z m 52,-2 c 9,-6 10,-11 2,-15 -17,-11 -13,-27 5,-24 10,2 19,-2 21,-9 6,-17 -33,-8 -53,12 -9,8 -13,22 -10,30 6,17 15,18 35,6 z m 2147,-47 c -4,-12 -10,-14 -17,-7 -5,5 -7,17 -3,27 4,12 10,14 17,7 5,-5 7,-17 3,-27 z m -2024,-46 c -1,-9 6,-19 18,-23 11,-3 20,-11 20,-17 0,-6 -7,-7 -17,-3 -10,4 -27,10 -38,13 -53,14 -62,51 -12,49 24,-2 31,-6 29,-19 z m -112,-18 c 96,-64 149,-96 173,-107 26,-12 37,-33 17,-33 -6,0 -37,17 -68,38 -31,20 -69,43 -84,51 -15,7 -42,29 -60,49 -32,34 -28,35 22,2 z m 216,-45 c 4,-8 12,-15 20,-15 8,0 14,-9 14,-20 0,-12 6,-20 13,-18 21,4 58,-13 51,-24 -3,-5 2,-8 12,-7 11,2 24,0 30,-3 6,-4 44,-25 85,-47 41,-22 73,-44 72,-49 -1,-6 6,-8 16,-5 25,6 91,-35 91,-58 0,-27 -20,-24 -66,11 -21,16 -47,30 -56,30 -9,0 -32,16 -51,35 -19,19 -38,31 -42,27 -5,-4 -5,-1 0,6 5,10 1,13 -16,12 -63,-5 -90,0 -87,17 3,18 -29,38 -74,48 -16,3 -28,11 -28,18 0,7 -9,18 -20,25 -11,7 -20,17 -20,22 0,16 50,11 56,-5 z m 454,-25 c 0,-6 -8,-10 -17,-8 -10,2 -17,-3 -15,-9 1,-7 -2,-13 -6,-13 -14,0 -21,11 -15,26 6,16 53,19 53,4 z m 275,-151 c 4,-6 0,-9 -11,-7 -11,2 -18,-2 -16,-9 1,-7 -2,-13 -6,-13 -14,0 -21,11 -15,26 6,16 39,19 48,3 z m -525,-24 25,-14 -32,1 c -18,1 -34,7 -37,15 -7,17 12,16 44,-2 z m 760,-5 c 0,-6 -8,-10 -17,-8 -10,2 -17,-3 -15,-9 1,-7 -2,-13 -6,-13 -14,0 -21,11 -15,26 6,16 53,19 53,4 z m -525,-30 c 3,-5 -1,-10 -10,-10 -9,0 -13,5 -10,10 3,6 8,10 10,10 2,0 7,-4 10,-10 z m -195,-20 c 0,-5 -4,-10 -9,-10 -6,0 -13,5 -16,10 -3,6 1,10 9,10 9,0 16,-4 16,-10 z m 276,-36 c 35,-20 62,-39 59,-44 -3,-4 3,-6 13,-3 26,6 92,-35 92,-58 0,-27 -20,-24 -66,11 -21,16 -47,30 -56,30 -9,0 -32,16 -51,35 -19,19 -38,31 -42,27 -5,-4 -5,-1 -1,6 5,8 -1,12 -18,12 -14,0 -26,5 -26,10 0,19 32,10 96,-26 z m -36,-59 25,-14 -32,1 c -18,1 -34,7 -37,15 -7,17 12,16 44,-2 z m 40,-55 c 0,-5 -4,-10 -9,-10 -6,0 -13,5 -16,10 -3,6 1,10 9,10 9,0 16,-4 16,-10 z m 103,-39 c 5,-5 6,-15 2,-21 -5,-8 -10,-8 -14,-2 -3,5 -22,17 -41,26 l -35,16 39,-5 c 22,-2 44,-9 49,-14 z"
       id="path2" />
    <path
       d="m 7578,6833 c 6,-2 18,-2 25,0 6,3 1,5 -13,5 -14,0 -19,-2 -12,-5 z"
       id="path4" />
    <path
       d="m 7480,6814 c -17,-9 -20,-14 -9,-14 9,0 22,7 29,15 15,18 13,18 -20,-1 z"
       id="path6" />
    <path
       d="m 7571,6783 c 7,-12 15,-20 18,-17 3,2 -3,12 -13,22 -17,16 -18,16 -5,-5 z"
       id="path8" />
    <path
       d="m 7575,6600 c 4,-6 15,-8 25,-5 13,4 25,-3 40,-25 12,-16 30,-30 39,-30 10,0 24,-7 31,-15 14,-17 40,-20 40,-4 0,5 -4,8 -9,5 -5,-3 -14,1 -21,9 -7,8 -18,15 -26,15 -7,0 -27,14 -44,30 -29,28 -90,44 -75,20 z"
       id="path10" />
    <path
       d="m 12450,6450 c 20,-13 33,-13 25,0 -3,6 -14,10 -23,10 -15,0 -15,-2 -2,-10 z"
       id="path12" />
    <path
       d="m 7270,6400 c 8,-5 20,-10 25,-10 6,0 3,5 -5,10 -8,5 -19,10 -25,10 -5,0 -3,-5 5,-10 z"
       id="path14" />
    <path
       d="m 12465,6340 c 3,-5 14,-10 23,-10 15,0 15,2 2,10 -20,13 -33,13 -25,0 z"
       id="path16" />
    <path
       d="m 6723,6325 c 3,-6 -5,-12 -16,-13 -17,-1 -19,1 -7,8 13,8 13,10 -1,10 -9,0 -24,-9 -34,-20 -10,-11 -26,-20 -37,-20 -23,0 -23,-15 0,-26 32,-14 73,-6 97,20 13,14 31,26 40,26 15,0 22,19 8,21 -5,0 -18,2 -31,3 -14,2 -21,-2 -19,-9 z m -33,-35 c 0,-5 -2,-10 -4,-10 -3,0 -8,5 -11,10 -3,6 -1,10 4,10 6,0 11,-4 11,-10 z"
       id="path18" />
    <path
       d="m 12451,6314 c 0,-11 3,-14 6,-6 3,7 2,16 -1,19 -3,4 -6,-2 -5,-13 z"
       id="path20" />
    <path
       d="m 6840,6290 c 0,-16 4,-18 22,-11 15,5 31,3 48,-6 20,-12 20,-10 -5,11 -36,31 -65,34 -65,6 z"
       id="path22" />
    <path
       d="m 6961,6280 c 10,-7 49,-2 49,5 0,2 -14,3 -31,3 -17,-1 -25,-4 -18,-8 z"
       id="path24" />
    <path
       d="m 12305,6170 c 3,-5 8,-10 11,-10 2,0 4,5 4,10 0,6 -5,10 -11,10 -5,0 -7,-4 -4,-10 z"
       id="path26" />
    <path
       d="m 6542,6139 c 2,-7 10,-15 17,-17 8,-3 12,1 9,9 -2,7 -10,15 -17,17 -8,3 -12,-1 -9,-9 z"
       id="path28" />
    <path
       d="m 6910,5551 c 0,-5 18,-11 41,-13 35,-3 38,-2 23,9 -20,15 -64,17 -64,4 z"
       id="path30" />
    <path
       d="m 7002,5539 c 3,-8 19,-14 36,-15 30,-1 36,7 9,12 -7,1 -20,5 -31,10 -14,5 -17,3 -14,-7 z"
       id="path32" />
    <path
       d="m 7107,5523 c -4,-3 0,-15 10,-25 15,-17 15,-18 -10,-18 -17,0 -27,-6 -27,-14 0,-21 91,-27 98,-6 3,8 11,22 19,32 13,14 11,17 -19,23 -18,3 -40,8 -49,11 -8,2 -19,1 -22,-3 z"
       id="path34" />
    <path
       d="m 6944,5495 c 22,-17 40,-20 32,-6 -3,5 -16,11 -28,14 -22,6 -22,5 -4,-8 z"
       id="path36" />
    <path
       d="m 7036,5493 c -3,-3 -3,-10 0,-14 7,-12 34,-11 34,0 0,11 -26,22 -34,14 z"
       id="path38" />
    <path
       d="m 7277,5444 c -8,-9 16,-55 42,-78 14,-13 21,-15 21,-6 0,9 10,11 35,7 19,-3 37,-1 41,4 9,15 1,19 -42,26 -23,4 -46,16 -57,30 -19,24 -29,28 -40,17 z"
       id="path40" />
    <path
       d="m 7040,5434 c 0,-2 9,-8 20,-14 11,-6 20,-7 20,-2 0,6 -9,12 -20,15 -11,3 -20,3 -20,1 z"
       id="path42" />
    <path
       d="m 7110,5416 c 0,-2 7,-7 16,-10 8,-3 12,-2 9,4 -6,10 -25,14 -25,6 z"
       id="path44" />
    <path
       d="m 7217,5413 c -12,-11 -8,-23 8,-23 8,0 15,7 15,15 0,16 -12,20 -23,8 z"
       id="path46" />
    <path
       d="m 7265,5362 c 6,-5 21,-13 35,-17 17,-5 22,-4 15,3 -5,5 -21,13 -35,17 -17,5 -22,4 -15,-3 z"
       id="path48" />
    <path
       d="m 7360,5336 c 0,-2 7,-6 15,-10 8,-3 15,-1 15,4 0,6 -7,10 -15,10 -8,0 -15,-2 -15,-4 z"
       id="path50" />
    <path
       d="m 7498,5303 c 7,-3 16,-2 19,1 4,3 -2,6 -13,5 -11,0 -14,-3 -6,-6 z"
       id="path52" />
    <path
       d="m 12260,5060 c 0,-6 7,-10 15,-10 8,0 15,2 15,4 0,2 -7,6 -15,10 -8,3 -15,1 -15,-4 z"
       id="path54" />
    <path
       d="m 12150,4876 c 0,-2 7,-7 16,-10 8,-3 12,-2 9,4 -6,10 -25,14 -25,6 z"
       id="path56" />
    <path
       d="m 7979,4831 c 6,-10 8,-21 4,-24 -3,-3 -2,-18 1,-32 5,-20 24,-34 81,-62 41,-19 80,-42 86,-49 12,-14 3,-38 -11,-29 -5,3 -11,1 -15,-4 -3,-6 -21,0 -41,14 -39,27 -73,40 -81,31 -11,-11 69,-126 92,-132 13,-3 26,-12 29,-20 3,-8 33,-27 66,-43 33,-16 68,-35 77,-42 9,-8 28,-19 42,-25 23,-10 24,-12 8,-19 -11,-5 -24,-2 -35,8 -26,23 -61,38 -94,42 -26,4 -23,0 28,-33 55,-35 79,-49 159,-90 17,-8 56,-30 87,-49 34,-22 63,-33 75,-29 14,4 18,0 18,-18 0,-20 -5,-24 -27,-24 -16,1 -28,7 -28,13 0,7 -24,22 -52,34 -72,29 -111,52 -121,68 -4,7 -15,13 -23,13 -8,0 -33,12 -57,26 l -42,25 50,-46 c 86,-78 157,-131 243,-178 45,-25 102,-62 126,-81 23,-20 47,-36 51,-36 5,0 16,-6 24,-14 9,-8 41,-26 71,-42 30,-15 69,-37 85,-49 68,-49 51,-29 -135,159 -174,175 -228,227 -190,181 18,-21 7,-19 -34,8 -19,12 -60,37 -90,56 -31,18 -56,37 -56,42 0,13 9,11 38,-10 15,-10 43,-26 63,-34 20,-8 40,-20 43,-26 4,-6 12,-11 19,-11 6,0 -56,67 -138,150 -83,82 -157,150 -166,150 -19,0 -41,23 -37,38 3,9 -187,212 -198,212 -3,0 0,-8 5,-19 z m 266,-271 c 3,-6 -1,-7 -9,-4 -18,7 -21,14 -7,14 6,0 13,-4 16,-10 z m 386,-397 c 13,-16 12,-17 -3,-4 -10,7 -18,15 -18,17 0,8 8,3 21,-13 z"
       id="path58" />
    <path
       d="m 12071,4603 c 7,-10 15,-20 16,-22 2,-2 3,3 3,11 0,9 -7,19 -16,22 -15,6 -15,4 -3,-11 z"
       id="path60" />
    <path
       d="m 8127,4459 c 7,-7 15,-10 18,-7 3,3 -2,9 -12,12 -14,6 -15,5 -6,-5 z"
       id="path62" />
    <path
       d="m 12220,4110 c 0,-9 87,-43 100,-38 5,2 -15,13 -45,25 -30,11 -55,18 -55,13 z"
       id="path64" />
    <path
       d="m 12450,4060 c 13,-11 25,-20 28,-20 3,0 -3,9 -13,20 -10,11 -23,20 -28,20 -6,0 0,-9 13,-20 z"
       id="path66" />
    <path
       d="m 12366,4062 c -3,-5 1,-9 9,-9 8,0 12,4 9,9 -3,4 -7,8 -9,8 -2,0 -6,-4 -9,-8 z"
       id="path68" />
    <path
       d="m 12180,3930 c 8,-5 20,-10 25,-10 6,0 3,5 -5,10 -8,5 -19,10 -25,10 -5,0 -3,-5 5,-10 z"
       id="path70" />
    <path
       d="m 11920,3833 c 0,-6 11,-15 25,-21 21,-10 25,-9 25,3 0,8 -4,15 -9,15 -5,0 -16,3 -25,6 -9,3 -16,2 -16,-3 z"
       id="path72" />
    <path
       d="m 12100,3820 c 0,-5 5,-10 11,-10 5,0 7,5 4,10 -3,6 -8,10 -11,10 -2,0 -4,-4 -4,-10 z"
       id="path74" />
    <path
       d="m 11720,3780 c 8,-5 20,-10 25,-10 6,0 3,5 -5,10 -8,5 -19,10 -25,10 -5,0 -3,-5 5,-10 z"
       id="path76" />
    <path
       d="m 11850,3755 c -10,-12 -10,-15 0,-15 7,0 10,-7 6,-15 -10,-26 3,-16 19,15 13,25 13,30 1,30 -7,0 -19,-7 -26,-15 z"
       id="path78" />
    <path
       d="m 11530,3710 c 0,-5 3,-10 8,-11 4,0 15,-2 25,-4 15,-3 16,-1 6,11 -13,16 -39,19 -39,4 z"
       id="path80" />
    <path
       d="m 11802,3709 c 6,-19 71,-50 110,-52 18,-2 43,-8 55,-15 22,-12 51,-17 41,-6 -4,3 -8,5 -10,3 -2,-1 -14,4 -28,12 -14,7 -36,15 -50,16 -14,1 -26,7 -28,13 -2,5 -10,10 -18,10 -8,0 -29,7 -46,16 -22,11 -29,12 -26,3 z"
       id="path82" />
    <path
       d="m 11041,3682 c -10,-21 -10,-24 0,-15 7,7 24,9 40,6 37,-7 37,2 0,21 -27,15 -29,14 -40,-12 z"
       id="path84" />
    <path
       d="m 11685,3660 c -10,-17 12,-37 25,-24 8,8 6,15 -4,23 -10,9 -16,9 -21,1 z"
       id="path86" />
    <path
       d="m 11785,3659 c 4,-5 15,-9 25,-9 10,0 22,-4 25,-10 3,-5 11,-10 18,-10 20,0 -7,20 -41,30 -20,5 -30,5 -27,-1 z"
       id="path88" />
    <path
       d="m 10930,3650 c 0,-5 5,-10 11,-10 5,0 7,5 4,10 -3,6 -8,10 -11,10 -2,0 -4,-4 -4,-10 z"
       id="path90" />
    <path
       d="m 10822,3622 c -13,-2 -21,-9 -19,-15 6,-19 34,-20 41,-1 8,20 7,21 -22,16 z"
       id="path92" />
    <path
       d="m 11666,3604 c -4,-11 -1,-14 11,-12 9,2 18,9 21,16 6,18 -25,15 -32,-4 z"
       id="path94" />
    <path
       d="m 11775,3570 c -10,-11 -13,-20 -8,-20 13,0 38,29 31,35 -3,3 -13,-4 -23,-15 z"
       id="path96" />
    <path
       d="m 10882,3568 c 3,-7 13,-15 22,-16 12,-3 17,1 14,10 -3,7 -13,15 -22,16 -12,3 -17,-1 -14,-10 z"
       id="path98" />
    <path
       d="m 10598,3506 -27,-12 32,-16 c 41,-21 115,-38 133,-31 22,8 17,23 -12,33 -33,13 -34,13 -34,-5 0,-8 -4,-15 -10,-15 -14,0 -13,13 2,28 6,6 10,13 7,16 -12,11 -68,13 -91,2 z"
       id="path100" />
    <path
       d="m 10810,3492 c 0,-20 28,-40 62,-44 35,-4 36,-3 22,13 -9,10 -21,15 -28,13 -7,-3 -19,2 -26,11 -13,16 -30,20 -30,7 z"
       id="path102" />
    <path
       d="m 10805,3411 c -3,-6 3,-15 14,-20 29,-16 33,-14 19,9 -14,22 -24,25 -33,11 z"
       id="path104" />
    <path
       d="m 10608,3370 c -16,-28 -16,-31 -2,-37 21,-8 59,30 51,51 -10,25 -30,19 -49,-14 z"
       id="path106" />
    <path
       d="m 10530,3265 c 14,-8 30,-14 35,-14 6,0 -1,6 -15,14 -14,8 -29,14 -35,14 -5,0 1,-6 15,-14 z"
       id="path108" />
    <path
       d="m 10830,3260 c 8,-5 20,-10 25,-10 6,0 3,5 -5,10 -8,5 -19,10 -25,10 -5,0 -3,-5 5,-10 z"
       id="path110" />
    <path
       d="m 10171,3204 c 0,-11 3,-14 6,-6 3,7 2,16 -1,19 -3,4 -6,-2 -5,-13 z"
       id="path112" />
  </g>
</svg>
